PathFileType	4	(X/Y/Z)	C:/Users/opensim2020/Desktop/walking_exp_matlab/subject01_walking13_straight_03.trc																																																																																																																												
DataRate	CameraRate	NumFrames	NumMarkers	Units	OrigDataRate	OrigDataStartFrame	OrigNumFrames																																																																																																																								
100	100	4	42	mm	100	1647	128																																																																																																																								
Frame#	Time	LFHD			RFHD			LBHD			RBHD			C7			T10			CLAV			STRN			RBAK			LSHO			LUPA			LELB			LFRM			LWRA			LWRB			LFIN			RSHO			RUPA			RELB			RFRM			RWRA			RWRB			RFIN			LASI			RASI			LPSI			RPSI			LTHI			LKNE			LTIB			LANK			LHEE			LTOE			RTHI			RKNE			RTIB			RANK			RHEE			RTOE			*39			*40			*41		
		X1	Y1	Z1	X2	Y2	Z2	X3	Y3	Z3	X4	Y4	Z4	X5	Y5	Z5	X6	Y6	Z6	X7	Y7	Z7	X8	Y8	Z8	X9	Y9	Z9	X10	Y10	Z10	X11	Y11	Z11	X12	Y12	Z12	X13	Y13	Z13	X14	Y14	Z14	X15	Y15	Z15	X16	Y16	Z16	X17	Y17	Z17	X18	Y18	Z18	X19	Y19	Z19	X20	Y20	Z20	X21	Y21	Z21	X22	Y22	Z22	X23	Y23	Z23	X24	Y24	Z24	X25	Y25	Z25	X26	Y26	Z26	X27	Y27	Z27	X28	Y28	Z28	X29	Y29	Z29	X30	Y30	Z30	X31	Y31	Z31	X32	Y32	Z32	X33	Y33	Z33	X34	Y34	Z34	X35	Y35	Z35	X36	Y36	Z36	X37	Y37	Z37	X38	Y38	Z38	X39	Y39	Z39	X40	Y40	Z40	X41	Y41	Z41	X42	Y42	Z42
																																																																																																																															
49	0.48	-162.8316	1661.84814	-1140.23254	-150.93362	1668.57971	-1027.80737	-277.76068	1614.69788	-1133.5719	-268.15347	1620.2218	-1013.61072	-310.11023	1427.22498	-1091.36731	-364.41586	1136.85217	-1068.61951	-167.67784	1352.70325	-1079.4563	-134.66263	1195.58252	-1081.38135	-378.96405	1237.58875	-1010.66162	-218.26811	1387.72583	-1241.73584	-232.65363	1214.9585	-1341.10156	-212.59312	1064.83752	-1368.56616	-101.58308	1020.03534	-1380.22168	31.92348	1012.57233	-1343.78259	7.14182	966.95868	-1372.86816	88.37213	969.37585	-1382.07703	-239.64337	1386.91138	-931.83398	-347.40964	1210.88477	-834.59149	-377.36911	1092.21667	-825.01996	-391.81512	975.09363	-788.10602	-354.15234	838.52472	-796.7677	-398.082	854.76099	-762.83038	-381.28766	774.31219	-749.98065	-203.01067	926.05109	-1180.31372	-183.79124	930.14917	-963.70667	-383.60828	939.92322	-1106.92761	-367.69217	936.67267	-963.22266	-294.23953	599.14227	-1222.64282	-333.01135	467.50479	-1204.71631	-424.86063	300.41806	-1203.71094	-496.92422	93.30267	-1145.03308	-543.84198	75.95176	-1090.198	-359.76584	31.93911	-1156.20349	-149.64345	605.04272	-898.9726	-82.71491	465.24023	-934.76807	-80.6846	291.15964	-925.5578	-29.56399	87.4668	-973.88556	-60.18521	35.89915	-1028.56262	113.2364	91.98543	-970.09741	-163.04135	1701.62952	-1050.9021	1973.02185	1023.89166	-3101.98511	2012.57727	1022.14642	-3140.70142
50	0.49	-150.72783	1660.82666	-1138.88074	-138.95108	1667.4679	-1026.39966	-265.73236	1613.9436	-1132.42493	-256.23053	1619.29578	-1012.46765	-298.65668	1426.31335	-1090.32861	-352.64822	1135.71521	-1067.68701	-156.18102	1351.72412	-1078.62	-123.12032	1194.68921	-1081.11243	-367.2034	1236.31726	-1009.71979	-206.80328	1387.23792	-1240.70703	-220.03325	1214.88269	-1340.53308	-199.53882	1064.96509	-1368.77649	-88.06197	1021.37799	-1380.17566	45.39727	1015.45282	-1343.70447	21.2151	969.66968	-1373.05737	102.49001	973.1402	-1382.18872	-228.06549	1385.73279	-930.80334	-336.72696	1209.98108	-834.33478	-367.03836	1091.48718	-824.74353	-382.4494	974.53784	-787.96179	-346.1442	837.5683	-796.89001	-390.08115	854.27277	-762.73279	-373.45547	773.56952	-749.89667	-191.84837	925.57965	-1181.24609	-170.84537	928.85461	-964.75378	-371.85892	939.14355	-1106.01587	-354.88361	935.54181	-962.38647	-285.43463	599.11438	-1223.52148	-325.27744	467.43994	-1205.65247	-419.61478	301.93674	-1204.26294	-495.38431	96.07638	-1145.73608	-542.69904	79.76032	-1090.87952	-359.43866	31.77807	-1156.23853	-140.72345	602.69855	-898.13489	-70.83266	464.55988	-935.88605	-63.66718	291.05045	-926.5069	-6.9008	88.26335	-974.97888	-36.00622	36.14172	-1029.57922	136.3427	97.14047	-972.0661	-151.06381	1700.34656	-1049.78833	1973.18909	1023.62177	-3101.97339	2012.49622	1022.04077	-3140.74194
51	0.5	-138.57205	1659.84082	-1137.46936	-126.83577	1666.34387	-1024.91321	-253.69191	1613.24451	-1131.20569	-244.32831	1618.45691	-1011.10883	-287.42654	1425.33203	-1089.28503	-340.75406	1134.44006	-1066.75537	-144.69629	1350.72412	-1077.30603	-111.38484	1193.82031	-1080.61829	-355.39322	1235.04004	-1008.71069	-195.39272	1386.75842	-1239.63928	-207.50073	1214.82373	-1339.8219	-186.73543	1065.13232	-1368.9408	-74.811	1022.67468	-1380.66187	58.44067	1017.75751	-1343.57336	34.78949	971.83795	-1373.14734	115.9688	976.05212	-1381.92126	-216.28993	1384.698	-929.73981	-325.9075	1209.005	-833.85571	-356.57684	1090.63672	-824.39795	-372.73129	973.80627	-787.65656	-337.15073	836.59338	-796.72394	-381.26346	853.41797	-762.67981	-365.09393	772.73792	-749.71948	-180.3102	925.11237	-1182.02014	-157.85825	927.56714	-965.72864	-359.82306	938.30243	-1105.17407	-341.96902	934.45996	-961.72693	-275.97546	598.93744	-1224.28613	-316.51538	467.43463	-1206.23767	-413.86865	303.44687	-1204.98535	-493.61551	98.88932	-1146.85449	-541.23499	83.86977	-1091.81006	-359.30981	31.85617	-1156.65186	-130.34506	601.06671	-897.79163	-59.01745	464.14322	-937.13757	-48.01154	290.64795	-927.60492	13.20527	88.93097	-976.15527	-14.72389	35.8769	-1030.44006	156.48482	100.48451	-974.32349	-138.83406	1699.37866	-1048.1626	1973.0874	1023.50452	-3102.02515	2012.63342	1022.1795	-3140.63452
52	0.51	-126.4461	1658.94348	-1135.99683	-114.79427	1665.13318	-1023.48224	-241.66318	1612.59033	-1129.76697	-232.43338	1617.61804	-1009.87885	-275.62747	1424.33472	-1087.86316	-328.69757	1133.24976	-1065.75659	-133.12476	1349.88257	-1076.21509	-99.668	1193.0835	-1080.05566	-343.59018	1233.84814	-1007.63953	-183.94133	1386.3623	-1238.44446	-195.07857	1214.79407	-1338.9563	-174.19737	1065.42297	-1368.74768	-62.13658	1023.55688	-1380.25659	71.16314	1019.4342	-1343.37415	47.89756	973.21948	-1372.91882	129.06056	978.30127	-1381.68982	-204.79608	1383.38892	-928.58069	-314.83356	1207.9718	-833.22095	-345.79153	1089.67529	-823.93311	-362.68115	972.89532	-787.26678	-327.65402	835.51953	-796.37408	-371.01926	852.62262	-762.25104	-355.98251	771.64661	-749.64703	-168.53918	924.64899	-1182.56543	-144.90825	926.30402	-966.50568	-347.52182	937.42816	-1104.51001	-329.10593	933.47125	-961.1189	-265.89737	598.73401	-1225.06812	-307.16614	467.37482	-1207.04492	-407.564	305.05804	-1205.78333	-491.64774	101.9326	-1147.84558	-539.54053	88.40993	-1092.88916	-359.07996	31.87009	-1156.79321	-117.98772	599.93427	-898.29956	-47.07441	463.41568	-937.9986	-33.68098	290.06097	-928.98114	29.98218	88.97704	-977.49158	2.50626	35.51188	-1031.78552	173.92834	102.00867	-977.19861	-126.73544	1698.19946	-1046.77588	1973.09729	1023.45874	-3102.05811	2012.62195	1022.19177	-3140.68579
